<svg width="79" height="15" viewBox="0 0 79 15" fill="none" xmlns="http://www.w3.org/2000/svg">
<path d="M8.55824 3.84233C8.47775 3.03267 8.12027 2.38873 7.4858 1.91051C6.85133 1.43229 6.0535 1.19318 5.09233 1.19318C4.41525 1.19318 3.81866 1.30919 3.30256 1.54119C2.79119 1.7732 2.38873 2.09517 2.09517 2.5071C1.80634 2.9143 1.66193 3.37832 1.66193 3.89915C1.66193 4.28267 1.74479 4.61885 1.91051 4.90767C2.07623 5.1965 2.29877 5.44508 2.57812 5.65341C2.86222 5.85701 3.17472 6.0322 3.51562 6.17898C3.86127 6.32576 4.20928 6.44886 4.55966 6.5483L6.09375 6.98864C6.55777 7.11648 7.02178 7.27983 7.4858 7.47869C7.94981 7.67756 8.37358 7.9285 8.7571 8.23153C9.14536 8.52983 9.45549 8.89678 9.6875 9.33239C9.92424 9.76326 10.0426 10.2817 10.0426 10.8878C10.0426 11.6643 9.84138 12.3627 9.43892 12.983C9.03646 13.6032 8.45881 14.0956 7.70597 14.4602C6.95313 14.8201 6.05114 15 5 15C4.01042 15 3.15104 14.8366 2.42188 14.5099C1.69271 14.1785 1.11979 13.7216 0.703125 13.1392C0.286458 12.5568 0.0520833 11.8821 0 11.1151H1.36364C1.41098 11.688 1.60038 12.1733 1.93182 12.571C2.26326 12.9688 2.69413 13.2718 3.22443 13.4801C3.75473 13.6837 4.34659 13.7855 5 13.7855C5.72443 13.7855 6.36837 13.6648 6.93182 13.4233C7.5 13.1771 7.94508 12.8362 8.26705 12.4006C8.59375 11.9602 8.7571 11.4489 8.7571 10.8665C8.7571 10.3741 8.62926 9.96212 8.37358 9.63068C8.1179 9.29451 7.76042 9.01278 7.30114 8.78551C6.84659 8.55824 6.31866 8.35701 5.71733 8.18182L3.97727 7.67045C2.83617 7.32955 1.95076 6.85843 1.32102 6.2571C0.691288 5.65578 0.37642 4.88873 0.37642 3.95597C0.37642 3.17472 0.584754 2.48816 1.00142 1.89631C1.42282 1.29972 1.991 0.835701 2.70597 0.504261C3.42566 0.168087 4.23295 0 5.12784 0C6.0322 0 6.83239 0.16572 7.52841 0.49716C8.22443 0.828599 8.77604 1.28551 9.18324 1.8679C9.59517 2.44555 9.81534 3.10369 9.84375 3.84233H8.55824Z" fill="#9AC4E5"/>
<path d="M17.3864 14.9787C16.3684 14.9787 15.4877 14.742 14.7443 14.2685C14.0009 13.7902 13.4257 13.1297 13.0185 12.2869C12.616 11.4394 12.4148 10.464 12.4148 9.3608C12.4148 8.26231 12.616 7.28693 13.0185 6.43466C13.4257 5.57765 13.9867 4.90767 14.7017 4.42472C15.4214 3.93703 16.2524 3.69318 17.1946 3.69318C17.7865 3.69318 18.357 3.80208 18.9062 4.01989C19.4555 4.23295 19.9479 4.56203 20.3835 5.0071C20.8239 5.44744 21.1719 6.00379 21.4276 6.67614C21.6832 7.34375 21.8111 8.13447 21.8111 9.0483V9.6733H13.2884V8.55824H20.5185C20.5185 7.85748 20.3764 7.22775 20.0923 6.66903C19.813 6.10559 19.4223 5.66051 18.9205 5.33381C18.4233 5.0071 17.848 4.84375 17.1946 4.84375C16.5033 4.84375 15.8949 5.02841 15.3693 5.39773C14.8437 5.76705 14.4318 6.25474 14.1335 6.8608C13.84 7.46686 13.6908 8.12973 13.6861 8.84943V9.51705C13.6861 10.3835 13.8352 11.1411 14.1335 11.7898C14.4366 12.4337 14.8651 12.9332 15.419 13.2884C15.973 13.6435 16.6288 13.821 17.3864 13.821C17.9025 13.821 18.3546 13.7405 18.7429 13.5795C19.1359 13.4186 19.465 13.2031 19.7301 12.9332C20 12.6586 20.2036 12.358 20.3409 12.0313L21.5412 12.4219C21.3755 12.8812 21.1032 13.3049 20.7244 13.6932C20.3504 14.0814 19.8816 14.3939 19.3182 14.6307C18.7595 14.8627 18.1155 14.9787 17.3864 14.9787Z" fill="#9AC4E5"/>
<path d="M27.6438 15C26.9857 15 26.3844 14.8722 25.8398 14.6165C25.2953 14.3561 24.8621 13.982 24.5401 13.4943C24.2182 13.0019 24.0572 12.4053 24.0572 11.7045C24.0572 11.1648 24.159 10.7102 24.3626 10.3409C24.5662 9.97159 24.855 9.66856 25.229 9.43182C25.6031 9.19508 26.0458 9.00805 26.5572 8.87074C27.0685 8.73343 27.632 8.62689 28.2475 8.55114C28.8583 8.47538 29.3744 8.40909 29.7958 8.35227C30.2219 8.29546 30.5463 8.20549 30.7688 8.08239C30.9914 7.95928 31.1026 7.76042 31.1026 7.4858V7.23011C31.1026 6.48674 30.8801 5.90199 30.435 5.47585C29.9947 5.04498 29.3602 4.82955 28.5316 4.82955C27.7456 4.82955 27.104 5.00237 26.6069 5.34801C26.1145 5.69366 25.7688 6.10085 25.57 6.5696L24.3697 6.13636C24.6159 5.53977 24.9568 5.06392 25.3924 4.70881C25.828 4.34896 26.3157 4.09091 26.8555 3.93466C27.3952 3.77367 27.9421 3.69318 28.4961 3.69318C28.9128 3.69318 29.346 3.74763 29.7958 3.85653C30.2504 3.96544 30.6718 4.15483 31.06 4.42472C31.4483 4.68987 31.7631 5.06155 32.0046 5.53977C32.2461 6.01326 32.3668 6.61458 32.3668 7.34375V14.7514H31.1026V13.0256H31.0245C30.873 13.3475 30.6481 13.66 30.3498 13.9631C30.0515 14.2661 29.6774 14.5147 29.2276 14.7088C28.7778 14.9029 28.2499 15 27.6438 15ZM27.8143 13.8423C28.4866 13.8423 29.069 13.6932 29.5614 13.3949C30.0539 13.0966 30.4326 12.7012 30.6978 12.2088C30.9677 11.7116 31.1026 11.1648 31.1026 10.5682V8.99148C31.0079 9.08144 30.8493 9.16193 30.6268 9.23295C30.409 9.30398 30.1557 9.3679 29.8668 9.42472C29.5827 9.4768 29.2987 9.52178 29.0146 9.55966C28.7305 9.59754 28.4748 9.63068 28.2475 9.65909C27.632 9.73485 27.1064 9.85322 26.6708 10.0142C26.2352 10.1752 25.9014 10.3977 25.6694 10.6818C25.4374 10.9612 25.3214 11.321 25.3214 11.7614C25.3214 12.4242 25.5581 12.938 26.0316 13.3026C26.5051 13.6624 27.0993 13.8423 27.8143 13.8423Z" fill="#9AC4E5"/>
<path d="M35.7298 14.7514V3.84233H36.9585V5.51847H37.0508C37.2686 4.96922 37.6474 4.52652 38.1871 4.19034C38.7317 3.84943 39.3472 3.67898 40.0337 3.67898C40.1379 3.67898 40.2539 3.68134 40.3817 3.68608C40.5096 3.69081 40.6161 3.69555 40.7014 3.70028V4.9858C40.6445 4.97633 40.5451 4.96212 40.4031 4.94318C40.261 4.92424 40.1071 4.91477 39.9414 4.91477C39.3732 4.91477 38.8666 5.03551 38.4215 5.27699C37.9812 5.51373 37.6332 5.8428 37.3775 6.2642C37.1218 6.68561 36.994 7.16619 36.994 7.70597V14.7514H35.7298Z" fill="#9AC4E5"/>
<path d="M46.788 14.9787C45.8126 14.9787 44.9627 14.7348 44.2383 14.2472C43.5186 13.7595 42.9599 13.0919 42.5621 12.2443C42.1644 11.3968 41.9656 10.4309 41.9656 9.34659C41.9656 8.25284 42.1668 7.27983 42.5692 6.42756C42.9764 5.57528 43.5399 4.90767 44.2596 4.42472C44.9793 3.93703 45.815 3.69318 46.7667 3.69318C47.4959 3.69318 48.1564 3.83523 48.7482 4.11932C49.3401 4.39867 49.8278 4.79403 50.2113 5.3054C50.5995 5.81203 50.8434 6.40388 50.9428 7.08097H49.6644C49.5318 6.46544 49.2122 5.93987 48.7056 5.50426C48.2037 5.06392 47.5645 4.84375 46.788 4.84375C46.092 4.84375 45.4764 5.03314 44.9414 5.41193C44.4064 5.78599 43.9873 6.30919 43.6843 6.98153C43.386 7.64915 43.2369 8.4233 43.2369 9.30398C43.2369 10.1894 43.3836 10.973 43.6772 11.6548C43.9708 12.3319 44.3827 12.8622 44.913 13.2457C45.448 13.6293 46.073 13.821 46.788 13.821C47.271 13.821 47.7113 13.7311 48.109 13.5511C48.5115 13.3665 48.8477 13.1061 49.1175 12.7699C49.3922 12.4337 49.5768 12.0336 49.6715 11.5696H50.9499C50.8552 12.2277 50.6209 12.8149 50.2468 13.331C49.8775 13.8423 49.3969 14.2448 48.805 14.5384C48.2179 14.8319 47.5456 14.9787 46.788 14.9787Z" fill="#9AC4E5"/>
<path d="M54.9236 7.93324V14.7514H53.6594V0.205966H54.9236V5.55398H55.0373C55.293 4.99053 55.6883 4.54072 56.2234 4.20455C56.7631 3.86837 57.445 3.70028 58.2688 3.70028C59.0075 3.70028 59.6561 3.8518 60.2148 4.15483C60.7736 4.45786 61.2092 4.9053 61.5217 5.49716C61.8342 6.08902 61.9904 6.81818 61.9904 7.68466V14.7514H60.7191V7.76278C60.7191 6.86316 60.4682 6.1553 59.9663 5.6392C59.4691 5.11837 58.7968 4.85795 57.9492 4.85795C57.3668 4.85795 56.8484 4.98106 56.3938 5.22727C55.9393 5.47349 55.5794 5.8286 55.3143 6.29261C55.0539 6.75189 54.9236 7.29877 54.9236 7.93324Z" fill="#9AC4E5"/>
<path d="M66.3281 14.858C66.0488 14.858 65.8073 14.7585 65.6037 14.5597C65.4048 14.3561 65.3054 14.1146 65.3054 13.8352C65.3054 13.5511 65.4048 13.3097 65.6037 13.1108C65.8073 12.9119 66.0488 12.8125 66.3281 12.8125C66.6122 12.8125 66.8537 12.9119 67.0526 13.1108C67.2514 13.3097 67.3509 13.5511 67.3509 13.8352C67.3509 14.0199 67.3035 14.1903 67.2088 14.3466C67.1188 14.5028 66.9957 14.6283 66.8395 14.723C66.688 14.813 66.5175 14.858 66.3281 14.858Z" fill="#9AC4E5"/>
<path d="M71.6992 14.858C71.4199 14.858 71.1784 14.7585 70.9748 14.5597C70.7759 14.3561 70.6765 14.1146 70.6765 13.8352C70.6765 13.5511 70.7759 13.3097 70.9748 13.1108C71.1784 12.9119 71.4199 12.8125 71.6992 12.8125C71.9833 12.8125 72.2248 12.9119 72.4237 13.1108C72.6225 13.3097 72.7219 13.5511 72.7219 13.8352C72.7219 14.0199 72.6746 14.1903 72.5799 14.3466C72.4899 14.5028 72.3668 14.6283 72.2106 14.723C72.0591 14.813 71.8886 14.858 71.6992 14.858Z" fill="#9AC4E5"/>
<path d="M77.0703 14.858C76.791 14.858 76.5495 14.7585 76.3459 14.5597C76.147 14.3561 76.0476 14.1146 76.0476 13.8352C76.0476 13.5511 76.147 13.3097 76.3459 13.1108C76.5495 12.9119 76.791 12.8125 77.0703 12.8125C77.3544 12.8125 77.5959 12.9119 77.7947 13.1108C77.9936 13.3097 78.093 13.5511 78.093 13.8352C78.093 14.0199 78.0457 14.1903 77.951 14.3466C77.861 14.5028 77.7379 14.6283 77.5817 14.723C77.4302 14.813 77.2597 14.858 77.0703 14.858Z" fill="#9AC4E5"/>
</svg>
